# xmcd CD database file
#
# Track frame offsets:
#	150
#	23158
#	46558
#	66690
#	88921
#	112380
#	124285
#	138685
#	156870
#	175632
#	217414
#
# Disc length: 3295 seconds
#
# Revision: 0
# Processed by: cddbd v1.5.2PL0 Copyright (c) Steve Scherf et al.
# Submitted via: CDex 1.51
#
DISCID=ad0cdd0b
DTITLE=The Dynamite Vikings - Meaning of the Party
DYEAR=2008
DGENRE=Jazz
TTITLE0=Donald Is Back In Town
TTITLE1=21st Century Hamlet
TTITLE2=Necessity
TTITLE3=Ten Little Funky Vikings
TTITLE4=Question Of Time
TTITLE5=Meaning Of The Party
TTITLE6=Jaakology
TTITLE7=Bailar Del Onze
TTITLE8=Meeting Possibility
TTITLE9=Getting Closer
TTITLE10=Second Chance
EXTD=YEAR: 2008
EXTT0=
EXTT1=
EXTT2=
EXTT3=
EXTT4=
EXTT5=
EXTT6=
EXTT7=
EXTT8=
EXTT9=
EXTT10=
PLAYORDER=
